<?xml version="1.0" encoding="utf-8"?>
<!-- Svg Vector Icons : http://www.onlinewebfonts.com/icon -->
<!DOCTYPE svg PUBLIC "-//W3C//DTD SVG 1.1//EN" "http://www.w3.org/Graphics/SVG/1.1/DTD/svg11.dtd">
<svg version="1.1" xmlns="http://www.w3.org/2000/svg" xmlns:xlink="http://www.w3.org/1999/xlink" x="0px" y="0px" viewBox="0 0 256 256" enable-background="new 0 0 256 256" xml:space="preserve">
<metadata> Svg Vector Icons : http://www.onlinewebfonts.com/icon </metadata>
<g> <path fill="#000000" d="M236.6,82.1c-5.9-14-14.5-26.7-25.3-37.5c-10.8-10.8-23.4-19.3-37.5-25.3c-14.5-6.1-30-9.3-45.9-9.3 S96.6,13.1,82,19.3c-14,5.9-26.7,14.5-37.5,25.3C33.7,55.4,25.2,68,19.3,82.1c-6.1,14.5-9.3,30-9.3,45.9c0,15.9,3.1,31.4,9.3,45.9 c5.9,14,14.5,26.7,25.3,37.5c10.8,10.8,23.4,19.3,37.5,25.3c14.5,6.1,30,9.3,45.9,9.3s31.4-3.1,45.9-9.3 c14-5.9,26.7-14.5,37.5-25.3c10.8-10.8,19.3-23.4,25.3-37.5c6.1-14.5,9.3-30,9.3-45.9C245.9,112.1,242.8,96.6,236.6,82.1 L236.6,82.1z M128,236.7C68,236.7,19.2,187.9,19.2,128C19.2,68.1,68,19.3,128,19.3c59.9,0,108.7,48.8,108.7,108.7 C236.7,187.9,187.9,236.7,128,236.7z"/> <path fill="#000000" d="M154.2,38.4h-52.4c-12.7,0-23.7,5.8-23.7,19.4v142.8c0,12.7,10.2,22.5,23.7,22.5h52.4 c13.5,0,23.6-11,23.6-24.5v-142C177.8,44,167.7,38.4,154.2,38.4z M129.6,41.4c0.9,0,1.6,0.7,1.6,1.6s-0.7,1.6-1.6,1.6 c-0.9,0-1.6-0.7-1.6-1.6C128,42.1,128.7,41.4,129.6,41.4z M121.4,50c0-0.9,0.8-1.7,1.7-1.7h13.8c0.9,0,1.7,0.8,1.7,1.7v0.1 c0,0.9-0.8,1.7-1.7,1.7h-13.8c-0.9,0-1.7-0.8-1.7-1.7V50z M116.2,48.5c0.9,0,1.6,0.7,1.6,1.6c0,0.9-0.7,1.6-1.6,1.6 s-1.6-0.7-1.6-1.6C114.6,49.2,115.3,48.5,116.2,48.5z M128,217.1c-4.4,0-7.9-3.6-7.9-7.9c0-4.4,3.6-7.9,7.9-7.9 c4.4,0,7.9,3.6,7.9,7.9C135.9,213.5,132.4,217.1,128,217.1z M169.7,193.7c0,1.3-1.1,2.3-2.4,2.3H88.6c-1.3,0-2.4-1.1-2.4-2.4V60 c0-1.3,1.1-2.4,2.4-2.4h78.7c1.3,0,2.4,1.1,2.4,2.4L169.7,193.7L169.7,193.7z"/></g>
</svg>